<svg height="23" width="50" xmlns="http://www.w3.org/2000/svg">
	<defs><style type="text/css">path.line{fill:none;stroke:#000000;stroke-width:3;stroke-linecap:round}</style></defs>
	<circle cx="36" cy="9" r="9" />
	<path
		class="line"
		d="m 42,14.5 5,5 v 0"
		style="stroke-width:5" />
	<circle
		cx="36"
		cy="9"
		r="7"
		style="fill:#ffffff" />
	<circle cx="36" cy="5.5" r="1.5" />
	<circle cx="36" cy="12.5" r="1.5" />
	<path
		class="line"
		d="m 19,12.5 h 5" />
	<path
		class="line"
		d="m 19,5.5 h 5" />
	<path d="m 8,6 c 0,-1.1 0.9,-2 2,-2 h 2 c 2,0 3,-2 5,-2 h 3 v 14 h -3 c -2,0 -3,-2 -5,-2 h -2 c -1,0 -2,-1 -2,-2" />
	<path
		class="line"
		d="m 8.5,9 h -3 c -2,0 -4,2 -4,4 v 10"
		style="stroke-linecap:butt" />
</svg>